<svg width="73" height="100" viewBox="0 0 73 100" fill="none" xmlns="http://www.w3.org/2000/svg">
<mask id="mask0_1:97" style="mask-type:alpha" maskUnits="userSpaceOnUse" x="0" y="0" width="72" height="99">
<path d="M44.8232 0H6.72348C3.02557 0 0 3.02557 0 6.72348V91.8876C0 95.5855 3.02557 98.6111 6.72348 98.6111H64.9937C68.6916 98.6111 71.7172 95.5855 71.7172 91.8876V26.8939L44.8232 0Z" fill="white"/>
</mask>
<g mask="url(#mask0_1:97)">
<path d="M44.8232 0H6.72348C3.02557 0 0 3.02557 0 6.72348V91.8876C0 95.5855 3.02557 98.6111 6.72348 98.6111H64.9937C68.6916 98.6111 71.7172 95.5855 71.7172 91.8876V26.8939L56.029 15.6881L44.8232 0Z" fill="#673AB7"/>
</g>
<mask id="mask1_1:97" style="mask-type:alpha" maskUnits="userSpaceOnUse" x="0" y="0" width="72" height="99">
<path d="M44.8232 0H6.72348C3.02557 0 0 3.02557 0 6.72348V91.8876C0 95.5855 3.02557 98.6111 6.72348 98.6111H64.9937C68.6916 98.6111 71.7172 95.5855 71.7172 91.8876V26.8939L44.8232 0Z" fill="white"/>
</mask>
<g mask="url(#mask1_1:97)">
<path d="M29.1351 76.1995H53.7879V71.7172H29.1351V76.1995ZM29.1351 49.3056V53.7879H53.7879V49.3056H29.1351ZM23.5322 51.5467C23.5322 53.4013 22.025 54.9085 20.1705 54.9085C18.3159 54.9085 16.8087 53.4013 16.8087 51.5467C16.8087 49.6922 18.3159 48.185 20.1705 48.185C22.025 48.185 23.5322 49.6922 23.5322 51.5467ZM23.5322 62.7525C23.5322 64.6071 22.025 66.1143 20.1705 66.1143C18.3159 66.1143 16.8087 64.6071 16.8087 62.7525C16.8087 60.898 18.3159 59.3908 20.1705 59.3908C22.025 59.3908 23.5322 60.898 23.5322 62.7525ZM23.5322 73.9583C23.5322 75.8129 22.025 77.3201 20.1705 77.3201C18.3159 77.3201 16.8087 75.8129 16.8087 73.9583C16.8087 72.1038 18.3159 70.5966 20.1705 70.5966C22.025 70.5966 23.5322 72.1038 23.5322 73.9583ZM29.1351 64.9937H53.7879V60.5114H29.1351V64.9937Z" fill="#F1F1F1"/>
</g>
<mask id="mask2_1:97" style="mask-type:alpha" maskUnits="userSpaceOnUse" x="0" y="0" width="72" height="99">
<path d="M44.8232 0H6.72348C3.02557 0 0 3.02557 0 6.72348V91.8876C0 95.5855 3.02557 98.6111 6.72348 98.6111H64.9937C68.6916 98.6111 71.7172 95.5855 71.7172 91.8876V26.8939L44.8232 0Z" fill="white"/>
</mask>
<g mask="url(#mask2_1:97)">
<path d="M46.7898 24.9273L71.7172 49.849V26.8939L46.7898 24.9273Z" fill="url(#paint0_linear_1:97)"/>
</g>
<mask id="mask3_1:97" style="mask-type:alpha" maskUnits="userSpaceOnUse" x="0" y="0" width="72" height="99">
<path d="M44.8232 0H6.72348C3.02557 0 0 3.02557 0 6.72348V91.8876C0 95.5855 3.02557 98.6111 6.72348 98.6111H64.9937C68.6916 98.6111 71.7172 95.5855 71.7172 91.8876V26.8939L44.8232 0Z" fill="white"/>
</mask>
<g mask="url(#mask3_1:97)">
<path d="M44.8232 0V20.1705C44.8232 23.8852 47.832 26.8939 51.5467 26.8939H71.7172L44.8232 0Z" fill="#B39DDB"/>
</g>
<mask id="mask4_1:97" style="mask-type:alpha" maskUnits="userSpaceOnUse" x="0" y="0" width="72" height="99">
<path d="M44.8232 0H6.72348C3.02557 0 0 3.02557 0 6.72348V91.8876C0 95.5855 3.02557 98.6111 6.72348 98.6111H64.9937C68.6916 98.6111 71.7172 95.5855 71.7172 91.8876V26.8939L44.8232 0Z" fill="white"/>
</mask>
<g mask="url(#mask4_1:97)">
<path d="M6.72348 0C3.02557 0 0 3.02557 0 6.72348V7.28377C0 3.58586 3.02557 0.56029 6.72348 0.56029H44.8232V0H6.72348Z" fill="white" fill-opacity="0.2"/>
</g>
<mask id="mask5_1:97" style="mask-type:alpha" maskUnits="userSpaceOnUse" x="0" y="0" width="72" height="99">
<path d="M44.8232 0H6.72348C3.02557 0 0 3.02557 0 6.72348V91.8876C0 95.5855 3.02557 98.6111 6.72348 98.6111H64.9937C68.6916 98.6111 71.7172 95.5855 71.7172 91.8876V26.8939L44.8232 0Z" fill="white"/>
</mask>
<g mask="url(#mask5_1:97)">
<path d="M64.9937 98.0508H6.72348C3.02557 98.0508 0 95.0253 0 91.3273V91.8876C0 95.5855 3.02557 98.6111 6.72348 98.6111H64.9937C68.6916 98.6111 71.7172 95.5855 71.7172 91.8876V91.3273C71.7172 95.0253 68.6916 98.0508 64.9937 98.0508Z" fill="#311B92" fill-opacity="0.2"/>
</g>
<mask id="mask6_1:97" style="mask-type:alpha" maskUnits="userSpaceOnUse" x="0" y="0" width="72" height="99">
<path d="M44.8232 0H6.72348C3.02557 0 0 3.02557 0 6.72348V91.8876C0 95.5855 3.02557 98.6111 6.72348 98.6111H64.9937C68.6916 98.6111 71.7172 95.5855 71.7172 91.8876V26.8939L44.8232 0Z" fill="white"/>
</mask>
<g mask="url(#mask6_1:97)">
<path d="M51.5467 26.8939C47.832 26.8939 44.8232 23.8852 44.8232 20.1705V20.7307C44.8232 24.4455 47.832 27.4542 51.5467 27.4542H71.7172V26.8939H51.5467Z" fill="#311B92" fill-opacity="0.1"/>
</g>
<path d="M44.8232 0H6.72348C3.02557 0 0 3.02557 0 6.72348V91.8876C0 95.5855 3.02557 98.6111 6.72348 98.6111H64.9937C68.6916 98.6111 71.7172 95.5855 71.7172 91.8876V26.8939L44.8232 0Z" fill="url(#paint1_radial_1:97)"/>
<defs>
<linearGradient id="paint0_linear_1:97" x1="59.2549" y1="27.0672" x2="59.2549" y2="49.8525" gradientUnits="userSpaceOnUse">
<stop stop-color="#311B92" stop-opacity="0.2"/>
<stop offset="1" stop-color="#311B92" stop-opacity="0.02"/>
</linearGradient>
<radialGradient id="paint1_radial_1:97" cx="0" cy="0" r="1" gradientUnits="userSpaceOnUse" gradientTransform="translate(2.27204 1.9601) scale(115.643)">
<stop stop-color="white" stop-opacity="0.1"/>
<stop offset="1" stop-color="white" stop-opacity="0"/>
</radialGradient>
</defs>
</svg>
