<?xml version="1.0" encoding="UTF-8"?><svg id="logosandtypes_com" xmlns="http://www.w3.org/2000/svg" xmlns:xlink="http://www.w3.org/1999/xlink" viewBox="0 0 150 150"><defs><style>.cls-1{fill:#fbbc04;}.cls-2{fill:none;}.cls-3{fill:#34a853;}.cls-4{fill:url(#linear-gradient);}.cls-5{fill:#ea4335;}</style><linearGradient id="linear-gradient" x1="84.31" y1="23.56" x2="84.31" y2="113.82" gradientUnits="userSpaceOnUse"><stop offset="0" stop-color="#1a73e8"/><stop offset="1" stop-color="#4285f4"/></linearGradient></defs><path class="cls-2" d="M0,0H150V150H0V0Z"/><g id="logo_GoogleOne_clr"><g id="Content"><path class="cls-5" d="M99.05,23.74l-1,8.81-28.48,23.06-2.69-34.73s7.86-7.97,8.61-8.48c8.98-7.23,23.58-.18,23.55,11.34Z"/></g></g><g id="logo_GoogleOne_clr-2"><g id="Content-2"><path class="cls-3" d="M99.06,104.11v23.62c0,8.16-6.6,14.79-14.74,14.79s-14.74-6.61-14.74-14.79v-36.53l29.48,12.91Z"/><path class="cls-4" d="M99.05,24.26V113.79l-29.48-22.59V55.61l24.13-19.96c3.54-2.93,5.35-7.14,5.35-11.4Z"/><path class="cls-1" d="M74.92,12.86c-3.27,2.75-5.35,6.83-5.35,11.4v31.36l-12.52,10.34c-2.72,2.3-6.05,3.39-9.34,3.39-4.23,0-8.44-1.84-11.34-5.38-5.17-6.29-4.29-15.6,2-20.8L74.92,12.86Z"/></g></g></svg>