<svg id="Layer_1" data-name="Layer 1" xmlns="http://www.w3.org/2000/svg" viewBox="0 0 369.62 511.66"><defs><style>.cls-1{fill:#ffc517;}.cls-1,.cls-2,.cls-3{fill-rule:evenodd;}.cls-2{fill:#eea90f;}.cls-3{fill:#fff;}</style></defs><title>google-collections</title><path class="cls-1" d="M34.61,0A34.64,34.64,0,0,0,0,34.73V511.66l150.16-69.3,150.16,69.3V34.73A34.65,34.65,0,0,1,335,0Z"/><path class="cls-2" d="M369.62,34.73a34.65,34.65,0,1,0-69.3,0v372l69.3,34.65Z"/><path class="cls-3" d="M217.85,230H151.77v26.78h38c-3.55,17-18.38,26.78-38,26.78-23.21,0-41.9-18.27-41.9-41s18.69-40.95,41.9-40.95a41.59,41.59,0,0,1,26.11,9.14l20.63-20.16a71.54,71.54,0,0,0-46.74-17.33c-39.32,0-70.91,30.87-70.91,69.3s31.59,69.31,70.91,69.31c35.46,0,67.7-25.2,67.7-69.31a56.17,56.17,0,0,0-1.62-12.6Z"/></svg>